# xmcd
#
# Track frame offsets: 
#        150
#        12840
#        24576
#        32903
#        45396
#        57376
#        65917
#        80036
#        89652
#        104489
#        112512
#        127509
#        147548
#        158687
#        169644
#        181829
#        192222
#        204745
#        217572
#        229747
#        245918
#        259580
#        270905
#        284416
#
# Disc length: 3974 seconds
#
# Revision: 1
# Processed by: cddbd v1.5.2PL0 Copyright (c) Steve Scherf et al.
# Submitted via: ExactAudioCopy v0.95b4
#
DISCID=4b0f8418
DTITLE=Mark Murphy - Playing the Field, Hip Parade
DYEAR=1960
DGENRE=Jazz
TTITLE0=Put the Blame on Mame
TTITLE1=Swinging on a Star
TTITLE2=My Gal's Come Back
TTITLE3=Playing the Field
TTITLE4=Heart and Soul
TTITLE5=Love is a Many Splendored Thing
TTITLE6=Honeysuckle Rose
TTITLE7=Isn't it About Time
TTITLE8=Wishing (Will Make it So)
TTITLE9=As Long as I Live
TTITLE10=I Didn't Know About You
TTITLE11=But Not For Me
TTITLE12=Firefly
TTITLE13=Lonesome Town
TTITLE14=Kansas City
TTITLE15=Come to Me
TTITLE16=Catch a Falling Star
TTITLE17=All the Way
TTITLE18=(You've Got) Personality
TTITLE19=Witchcraft
TTITLE20=Venus
TTITLE21=It's Not For Me To Say
TTITLE22=Send For Me
TTITLE23=I Only Have Eyes for You
EXTD=YEAR: 1960
EXTT0=
EXTT1=
EXTT2=
EXTT3=
EXTT4=
EXTT5=
EXTT6=
EXTT7=
EXTT8=
EXTT9=
EXTT10=
EXTT11=
EXTT12=
EXTT13=
EXTT14=
EXTT15=
EXTT16=
EXTT17=
EXTT18=
EXTT19=
EXTT20=
EXTT21=
EXTT22=
EXTT23=
PLAYORDER=
